<?xml version="1.0" encoding="iso-8859-1"?>
<!-- Generator: Adobe Illustrator 19.0.0, SVG Export Plug-In . SVG Version: 6.00 Build 0)  -->
<svg version="1.1" id="Capa_1" xmlns="http://www.w3.org/2000/svg" xmlns:xlink="http://www.w3.org/1999/xlink" x="0px" y="0px"
	 viewBox="0 0 512 512" style="enable-background:new 0 0 512 512;" xml:space="preserve">
<path style="fill:#292D30;" d="M291.612,449.071c-1.896,0-3.823-0.35-5.694-1.087c-7.978-3.147-11.894-12.165-8.749-20.143
	l76.959-195.126c2.334-5.92,8.046-9.817,14.41-9.831c0.012,0,0.024,0,0.036,0c6.35,0,12.061,3.866,14.419,9.765l77.994,195.126
	c3.183,7.964-0.692,16.999-8.656,20.182c-7.964,3.184-16.999-0.692-20.183-8.656l-63.478-158.81l-62.609,158.745
	C303.653,445.344,297.802,449.071,291.612,449.071z"/>
<path style="fill:#E4F2F6;" d="M489.821,328.889c12.249,0,22.179-9.93,22.179-22.179V126.585c0-12.249-9.93-22.179-22.179-22.179
	H248.363c-12.249,0-22.179,9.93-22.179,22.179V306.71c0,12.249,9.93,22.179,22.179,22.179L489.821,328.889L489.821,328.889z"/>
<path style="fill:#C8E6EB;" d="M489.821,104.406H367.627v224.483h122.194c12.249,0,22.179-9.93,22.179-22.179V126.585
	C512,114.336,502.07,104.406,489.821,104.406z"/>
<g>
	<rect x="433.979" y="238.383" style="fill:#52A2DD;" width="36.148" height="46.14"/>
	<rect x="377.951" y="209.494" style="fill:#52A2DD;" width="36.148" height="75.035"/>
</g>
<rect x="321.923" y="180.804" style="fill:#78BEFF;" width="36.148" height="103.714"/>
<rect x="265.896" y="148.772" style="fill:#93CBFF;" width="36.148" height="135.755"/>
<path style="fill:#414B82;" d="M170.384,479.787c-11.781,0-21.331-9.55-21.331-21.331V287.956c0-11.781,9.55-21.331,21.331-21.331
	s21.331,9.55,21.331,21.331v170.501C191.715,470.237,182.165,479.787,170.384,479.787z"/>
<path style="fill:#5F6E9B;" d="M118.89,479.787c-11.781,0-21.331-9.55-21.331-21.331V287.956c0-11.781,9.55-21.331,21.331-21.331
	s21.331,9.55,21.331,21.331v170.501C140.222,470.237,130.672,479.787,118.89,479.787z"/>
<path style="fill:#414B82;" d="M317.454,138.045c-2.868-9.414-12.825-14.72-22.239-11.854l-50.735,15.454l-46.324-22.524
	c-2.02-0.982-4.208-1.547-6.441-1.716v-0.196H97.559v0.125c-11.632,0.084-22.561,7.701-27.233,19.011l-7.305,17.687l-12.211-26.371
	c-4.136-8.93-14.725-12.819-23.657-8.683c-8.93,4.135-12.818,14.727-8.683,23.657l29.314,63.313
	c2.921,6.309,9.238,10.333,16.168,10.333c0.125,0,0.251-0.001,0.377-0.004c7.076-0.148,13.395-4.472,16.096-11.015l17.133-41.49
	v124.154h94.155V155.619l43.474,21.138c2.449,1.191,5.115,1.794,7.792,1.794c1.745,0,3.496-0.256,5.193-0.774l57.427-17.493
	C315.014,157.417,320.321,147.46,317.454,138.045z"/>
<path style="fill:#1E2D64;" d="M317.454,138.045c-2.868-9.414-12.825-14.72-22.239-11.854l-50.735,15.454l-46.324-22.524
	c-2.02-0.982-4.208-1.547-6.441-1.716v-0.196h-47.068v170.716h47.068V155.619l43.474,21.138c2.449,1.191,5.115,1.794,7.792,1.794
	c1.745,0,3.496-0.256,5.193-0.774l57.427-17.493C315.014,157.417,320.321,147.46,317.454,138.045z"/>
<rect x="159.83" y="173.016" style="fill:#414B82;" width="21.234" height="6.193"/>
<circle style="fill:#FFB69E;" cx="144.63" cy="69.057" r="36.844"/>
<polygon style="fill:#FFFFFF;" points="144.647,117.212 117.506,117.212 144.647,188.429 171.788,117.212 "/>
<path style="fill:#FF3C3C;" d="M156.424,141.564l-6.042-10.988l5.243-9.535c0.945-1.719-0.299-3.829-2.264-3.829h-17.43
	c-1.962,0-3.21,2.107-2.264,3.829l5.243,9.535l-6.042,10.988c-0.832,1.514-1.103,3.273-0.765,4.968l3.174,17.317l9.367,24.58
	l9.367-24.58l3.174-17.317C157.527,144.837,157.257,143.078,156.424,141.564z"/>
<path style="fill:#DC1428;" d="M153.362,117.212c1.962,0,3.21,2.107,2.264,3.829l-5.243,9.535l6.042,10.988
	c0.832,1.514,1.103,3.273,0.765,4.968l-3.174,17.317l-9.367,24.58v-71.217L153.362,117.212L153.362,117.212z"/>
<path style="fill:#80868C;" d="M15.651,142.796l15.651-27.117l-11.81-49.856c-0.396-1.675-1.693-2.989-3.36-3.408
	s-3.429,0.127-4.569,1.417L0,76.919L15.651,142.796z"/>
<path style="fill:#ADB5BD;" d="M15.651,142.796h37.568c3.478,0,6.041-3.252,5.229-6.634L45.495,82.225
	c-0.903-3.812-4.355-6.466-8.265-6.355L0,76.919L15.651,142.796z"/>
<g>
	<path style="fill:#FFB69E;" d="M50.811,127.662c-4.136-8.93-14.725-12.819-23.657-8.683c-8.93,4.135-12.818,14.727-8.683,23.657
		L50.811,127.662z"/>
	<path style="fill:#FFB69E;" d="M317.454,138.046c-2.868-9.414-12.825-14.72-22.239-11.854l10.385,34.092
		C315.014,157.417,320.321,147.46,317.454,138.046z"/>
</g>
<g>
	<polygon style="fill:#FFFFFF;" points="54.967,136.637 22.623,151.604 18.471,142.636 50.811,127.662 	"/>
	<polygon style="fill:#FFFFFF;" points="296.14,163.166 285.761,129.072 295.215,126.192 305.6,160.284 	"/>
</g>
<g>
</g>
<g>
</g>
<g>
</g>
<g>
</g>
<g>
</g>
<g>
</g>
<g>
</g>
<g>
</g>
<g>
</g>
<g>
</g>
<g>
</g>
<g>
</g>
<g>
</g>
<g>
</g>
<g>
</g>
</svg>
